{
  "accessors": [
    {
      "bufferView": 2,
      "componentType": 5126,
      "count": 5530,
      "max": [
        6.5224199295043945,
        29.968799591064453,
        5.541329860687256
      ],
      "min": [
        -2.605220079421997,
        9.06641960144043,
        0.0
      ],
      "type": "VEC3"
    },
    {
      "bufferView": 2,
      "byteOffset": 66360,
      "componentType": 5126,
      "count": 5530,
      "max": [
        1.0,
        1.0,
        0.9999690055847168
      ],
      "min": [
        -1.0,
        -1.0,
        -1.0
      ],
      "type": "VEC3"
    },
    {
      "bufferView": 1,
      "componentType": 5126,
      "count": 5530,
      "max": [
        1.0,
        1.000100016593933
      ],
      "min": [
        -0.007000000216066837,
        0.00010001700138673186
      ],
      "type": "VEC2"
    },
    {
      "bufferView": 0,
      "componentType": 5125,
      "count": 5868,
      "type": "SCALAR"
    },
    {
      "bufferView": 2,
      "byteOffset": 132720,
      "componentType": 5126,
      "count": 7700,
      "max": [
        6.935659885406494,
        27.14780044555664,
        2.8861498832702637
      ],
      "min": [
        -2.6445200443267822,
        12.307100296020508,
        0.019967999309301376
      ],
      "type": "VEC3"
    },
    {
      "bufferView": 2,
      "byteOffset": 225120,
      "componentType": 5126,
      "count": 7700,
      "max": [
        1.0,
        1.0,
        1.0
      ],
      "min": [
        -1.0,
        -1.0,
        -1.0
      ],
      "type": "VEC3"
    },
    {
      "bufferView": 1,
      "byteOffset": 44240,
      "componentType": 5126,
      "count": 7700,
      "max": [
        0.9842709898948669,
        0.9710119962692261
      ],
      "min": [
        0.04696499928832054,
        0.03344999998807907
      ],
      "type": "VEC2"
    },
    {
      "bufferView": 0,
      "byteOffset": 23472,
      "componentType": 5125,
      "count": 16992,
      "type": "SCALAR"
    },
    {
      "bufferView": 2,
      "byteOffset": 317520,
      "componentType": 5126,
      "count": 280,
      "max": [
        6.365149974822998,
        26.651500701904297,
        2.3900399208068848
      ],
      "min": [
        -2.0730600357055664,
        12.802499771118164,
        0.5152469873428345
      ],
      "type": "VEC3"
    },
    {
      "bufferView": 2,
      "byteOffset": 320880,
      "componentType": 5126,
      "count": 280,
      "max": [
        1.0,
        0.8677573800086975,
        1.0
      ],
      "min": [
        -1.0,
        -0.8677573800086975,
        -1.0
      ],
      "type": "VEC3"
    },
    {
      "bufferView": 1,
      "byteOffset": 105840,
      "componentType": 5126,
      "count": 280,
      "max": [
        1.0,
        1.0
      ],
      "min": [
        0.0,
        0.0
      ],
      "type": "VEC2"
    },
    {
      "bufferView": 0,
      "byteOffset": 91440,
      "componentType": 5125,
      "count": 624,
      "type": "SCALAR"
    },
    {
      "bufferView": 2,
      "byteOffset": 324240,
      "componentType": 5126,
      "count": 6265,
      "max": [
        0.7345970273017883,
        21.70949935913086,
        3.9628798961639404
      ],
      "min": [
        -0.8203979730606079,
        20.90369987487793,
        2.5160200595855713
      ],
      "type": "VEC3"
    },
    {
      "bufferView": 2,
      "byteOffset": 399420,
      "componentType": 5126,
      "count": 6265,
      "max": [
        0.999845027923584,
        0.9995972514152527,
        1.0
      ],
      "min": [
        -0.999845027923584,
        -1.0,
        -0.999845027923584
      ],
      "type": "VEC3"
    },
    {
      "bufferView": 1,
      "byteOffset": 108080,
      "componentType": 5126,
      "count": 6265,
      "max": [
        14.079400062561035,
        -16.91200065612793
      ],
      "min": [
        9.905030250549316,
        -41.04669952392578
      ],
      "type": "VEC2"
    },
    {
      "bufferView": 0,
      "byteOffset": 93936,
      "componentType": 5125,
      "count": 19959,
      "type": "SCALAR"
    }
  ],
  "asset": {
    "extras": {
      "author": "RBLXSupercars (https://sketchfab.com/RBLXSupercars)",
      "license": "CC-BY-4.0 (http://creativecommons.org/licenses/by/4.0/)",
      "source": "https://sketchfab.com/3d-models/1998-honda-nsx-gt500-jgtc-e5c271306a4248b980326f58ca757b8b",
      "title": "1998 Honda NSX GT500 JGTC"
    },
    "generator": "Sketchfab-15.50.0",
    "version": "2.0"
  },
  "bufferViews": [
    {
      "buffer": 0,
      "byteLength": 173772,
      "name": "floatBufferViews",
      "target": 34963
    },
    {
      "buffer": 0,
      "byteLength": 158200,
      "byteOffset": 173772,
      "byteStride": 8,
      "name": "floatBufferViews",
      "target": 34962
    },
    {
      "buffer": 0,
      "byteLength": 474600,
      "byteOffset": 331972,
      "byteStride": 12,
      "name": "floatBufferViews",
      "target": 34962
    }
  ],
  "buffers": [
    {
      "byteLength": 806572,
      "uri": "scene.bin"
    }
  ],
  "images": [
    {
      "uri": "textures/Body1Mtl_baseColor.png"
    },
    {
      "uri": "textures/Body1Mtl_emissive.png"
    },
    {
      "uri": "textures/Ce321Mtl_baseColor.png"
    },
    {
      "uri": "textures/Ce321Mtl_emissive.png"
    },
    {
      "uri": "textures/Meshpart1Mtl_baseColor.png"
    }
  ],
  "materials": [
    {
      "alphaCutoff": 0.0,
      "alphaMode": "MASK",
      "doubleSided": true,
      "emissiveTexture": {
        "index": 1
      },
      "name": "Body1Mtl",
      "pbrMetallicRoughness": {
        "baseColorTexture": {
          "index": 0
        },
        "metallicFactor": 0.0,
        "roughnessFactor": 0.0
      }
    },
    {
      "alphaMode": "BLEND",
      "doubleSided": true,
      "emissiveTexture": {
        "index": 3
      },
      "name": "Ce321Mtl",
      "pbrMetallicRoughness": {
        "baseColorTexture": {
          "index": 2
        },
        "metallicFactor": 0.0,
        "roughnessFactor": 0.25762195121951215
      }
    },
    {
      "doubleSided": true,
      "emissiveTexture": {
        "index": 4
      },
      "name": "Meshpart1Mtl",
      "pbrMetallicRoughness": {
        "baseColorTexture": {
          "index": 4
        },
        "metallicFactor": 0.0
      }
    },
    {
      "alphaMode": "BLEND",
      "doubleSided": true,
      "name": "Meshpart5Mtl",
      "pbrMetallicRoughness": {
        "baseColorFactor": [
          0.00258583,
          0.00258583,
          0.00258583,
          0.0
        ],
        "metallicFactor": 0.0
      }
    }
  ],
  "meshes": [
    {
      "name": "Object_0",
      "primitives": [
        {
          "attributes": {
            "NORMAL": 1,
            "POSITION": 0,
            "TEXCOORD_0": 2
          },
          "indices": 3,
          "material": 0,
          "mode": 4
        }
      ]
    },
    {
      "name": "Object_1",
      "primitives": [
        {
          "attributes": {
            "NORMAL": 5,
            "POSITION": 4,
            "TEXCOORD_0": 6
          },
          "indices": 7,
          "material": 1,
          "mode": 4
        }
      ]
    },
    {
      "name": "Object_2",
      "primitives": [
        {
          "attributes": {
            "NORMAL": 9,
            "POSITION": 8,
            "TEXCOORD_0": 10
          },
          "indices": 11,
          "material": 2,
          "mode": 4
        }
      ]
    },
    {
      "name": "Object_3",
      "primitives": [
        {
          "attributes": {
            "NORMAL": 13,
            "POSITION": 12,
            "TEXCOORD_0": 14
          },
          "indices": 15,
          "material": 3,
          "mode": 4
        }
      ]
    }
  ],
  "nodes": [
    {
      "children": [
        1
      ],
      "matrix": [
        -2.220446049250313e-16,
        2.220446049250313e-16,
        -1.0,
        0.0,
        -1.0,
        -4.930380657631324e-32,
        2.220446049250313e-16,
        0.0,
        0.0,
        1.0,
        2.220446049250313e-16,
        0.0,
        0.0,
        0.0,
        0.0,
        1.0
      ],
      "name": "Sketchfab_model"
    },
    {
      "children": [
        2,
        3,
        4,
        5
      ],
      "name": "1998 Honda NSX GT500 JGTC.obj.cleaner.materialmerger.gles"
    },
    {
      "mesh": 0,
      "name": "Object_2"
    },
    {
      "mesh": 1,
      "name": "Object_3"
    },
    {
      "mesh": 2,
      "name": "Object_4"
    },
    {
      "mesh": 3,
      "name": "Object_5"
    }
  ],
  "samplers": [
    {
      "magFilter": 9729,
      "minFilter": 9987,
      "wrapS": 10497,
      "wrapT": 10497
    }
  ],
  "scene": 0,
  "scenes": [
    {
      "name": "Sketchfab_Scene",
      "nodes": [
        0
      ]
    }
  ],
  "textures": [
    {
      "sampler": 0,
      "source": 0
    },
    {
      "sampler": 0,
      "source": 1
    },
    {
      "sampler": 0,
      "source": 2
    },
    {
      "sampler": 0,
      "source": 3
    },
    {
      "sampler": 0,
      "source": 4
    }
  ]
}
